<svg width="36" height="37" viewBox="0 0 36 37" fill="none" xmlns="http://www.w3.org/2000/svg">
<path d="M0 28.6438C0 30.2797 1.32725 31.607 2.96315 31.607H24.6929C26.3289 31.607 27.6561 30.2797 27.6561 28.6438V11.8526H0V28.6438ZM3.95087 16.7912C3.95087 16.248 4.39534 15.8035 4.93859 15.8035H10.8649C11.4081 15.8035 11.8526 16.248 11.8526 16.7912V22.7175C11.8526 23.2608 11.4081 23.7052 10.8649 23.7052H4.93859C4.39534 23.7052 3.95087 23.2608 3.95087 22.7175V16.7912ZM24.6929 3.95087H21.7298V0.987718C21.7298 0.444473 21.2853 0 20.7421 0H18.7666C18.2234 0 17.7789 0.444473 17.7789 0.987718V3.95087H9.87718V0.987718C9.87718 0.444473 9.43271 0 8.88946 0H6.91403C6.37078 0 5.92631 0.444473 5.92631 0.987718V3.95087H2.96315C1.32725 3.95087 0 5.27812 0 6.91403V9.87718H27.6561V6.91403C27.6561 5.27812 26.3289 3.95087 24.6929 3.95087Z" fill="#B2B2B2"/>
<circle cx="25.1809" cy="26.4972" r="8.05978" fill="white"/>
<path d="M24.4711 27.6127L22.7878 29.3089L22.3684 28.8884L24.0648 27.2075L24.7811 26.4977L24.0653 25.7874L22.3686 24.1036L22.7899 23.6823L24.47 25.3805L25.1798 26.098L25.8907 25.3816L27.5745 23.6849L27.9957 24.1062L26.2975 25.7863L25.5801 26.4961L26.2964 27.207L27.9926 28.8902L27.5721 29.3097L25.8912 27.6133L25.1814 26.8969L24.4711 27.6127ZM21.9361 28.455C21.9364 28.4553 21.9367 28.4556 21.937 28.4559L21.9361 28.455ZM27.1387 29.742C27.139 29.7417 27.1393 29.7414 27.1396 29.7411L27.1387 29.742ZM25.1809 17.4374C20.1762 17.4374 16.1211 21.4925 16.1211 26.4972C16.1211 31.5019 20.1762 35.557 25.1809 35.557C30.1855 35.557 34.2407 31.5019 34.2407 26.4972C34.2407 21.4925 30.1855 17.4374 25.1809 17.4374Z" fill="#B2B2B2" stroke="white" stroke-width="2"/>
</svg>
