<svg width="29" height="37" viewBox="0 0 29 37" fill="none" xmlns="http://www.w3.org/2000/svg">
<path d="M28.9983 21.4939C28.9983 29.5191 22.5085 36.0217 14.4991 36.0217C6.48975 36.0217 0 29.5191 0 21.4939C0 14.23 5.31867 8.20928 12.2685 7.14064V4.73097H10.3167C9.85662 4.73097 9.4802 4.35381 9.4802 3.89283V1.09901C9.4802 0.63803 9.85662 0.260864 10.3167 0.260864H18.6816C19.1416 0.260864 19.5181 0.63803 19.5181 1.09901V3.89283C19.5181 4.35381 19.1416 4.73097 18.6816 4.73097H16.7298V7.14064C19.3438 7.54574 21.7278 8.6493 23.6796 10.2557L25.5965 8.335C25.9242 8.00672 26.4539 8.00672 26.7816 8.335L28.7543 10.3116C29.0819 10.6399 29.0819 11.1707 28.7543 11.499L26.7049 13.5525L26.6631 13.5944C28.1409 15.8574 28.9983 18.5743 28.9983 21.4939ZM16.7298 24.0083V13.4267C16.7298 12.9658 16.3533 12.5886 15.8933 12.5886H13.105C12.6449 12.5886 12.2685 12.9658 12.2685 13.4267V24.0083C12.2685 24.4693 12.6449 24.8465 13.105 24.8465H15.8933C16.3533 24.8465 16.7298 24.4693 16.7298 24.0083Z" fill="white" fill-opacity="0.6"/>
</svg>
